<svg xmlns="http://www.w3.org/2000/svg" width="15" height="20" fill="none">
    <path fill="#EEE9DC" fill-rule="evenodd" d="M13.066 18.344a1.24 1.24 0 0 1-.923.406H2.5c-.355 0-.683-.145-.922-.407a1.233 1.233 0 0 1-.321-.957L2.267 6.25h1.305v1.875a.625.625 0 0 0 1.25 0V6.25h5v1.875a.625.625 0 0 0 1.25 0V6.25h1.303l1.013 11.137c.032.354-.082.694-.322.957ZM4.822 3.75c0-1.379 1.12-2.5 2.5-2.5a2.49 2.49 0 0 1 2.5 2.5V5h-5V3.75Zm9.812 13.524L13.57 5.569A.626.626 0 0 0 12.947 5h-1.875V3.75a3.73 3.73 0 0 0-1.095-2.655A3.755 3.755 0 0 0 3.572 3.75V5H1.697a.624.624 0 0 0-.623.569L.01 17.274a2.506 2.506 0 0 0 .644 1.912A2.504 2.504 0 0 0 2.5 20h9.644c.701 0 1.374-.296 1.846-.814a2.51 2.51 0 0 0 .644-1.912Z" clip-rule="evenodd"/>
</svg>