<svg xmlns="http://www.w3.org/2000/svg" width="20" height="22" fill="none">
    <path fill="#491E4B" fill-rule="evenodd" d="M4 20a4 4 0 0 1-4-4V4a4 4 0 0 1 4-4h12a4 4 0 0 1 4 4v12a4 4 0 0 1-4 4H4Z" clip-rule="evenodd"/>
    <path fill="#EEE9DC" d="M9.375 14.235h1.828v-.121c.026-1.47.448-2.129 1.534-2.8 1.144-.69 1.848-1.662 1.848-3.1 0-2.078-1.573-3.484-3.919-3.484-2.154 0-3.88 1.26-3.963 3.56h1.943c.077-1.355 1.042-1.95 2.02-1.95 1.087 0 1.969.723 1.969 1.855 0 .952-.595 1.623-1.355 2.096-1.19.729-1.892 1.451-1.905 3.823v.121Zm.965 3.886c.697 0 1.279-.568 1.279-1.278 0-.697-.582-1.272-1.279-1.272a1.28 1.28 0 0 0-1.278 1.272c0 .71.575 1.278 1.278 1.278Z"/>
</svg>