<svg xmlns="http://www.w3.org/2000/svg" width="22" height="22" fill="none">
    <path fill="#000" fill-rule="evenodd" d="M19.959 15.45c-.048 1.075-.228 1.655-.378 2.042a3.65 3.65 0 0 1-2.09 2.088c-.386.15-.97.331-2.04.379-1.161.051-1.51.064-4.444.064-2.936 0-3.288-.013-4.444-.064-1.075-.048-1.655-.228-2.042-.378a3.386 3.386 0 0 1-1.263-.821 3.42 3.42 0 0 1-.821-1.264c-.15-.387-.331-.971-.378-2.041-.052-1.16-.065-1.509-.065-4.444 0-2.936.013-3.288.065-4.444.047-1.074.227-1.655.378-2.041.176-.478.455-.912.825-1.264a3.415 3.415 0 0 1 1.264-.82c.386-.151.97-.332 2.041-.38 1.16-.05 1.509-.064 4.444-.064 2.94 0 3.288.013 4.444.065 1.074.047 1.654.228 2.041.378.477.176.911.456 1.264.82.365.358.644.787.82 1.265.15.386.331.97.379 2.041.051 1.16.064 1.508.064 4.444 0 2.935-.013 3.279-.064 4.44Zm1.98-8.982c-.05-1.169-.24-1.973-.51-2.669a5.368 5.368 0 0 0-1.273-1.951A5.413 5.413 0 0 0 18.21.58c-.7-.27-1.5-.46-2.668-.511C14.363.013 13.989 0 11.002 0c-2.987 0-3.36.013-4.534.064C5.3.116 4.495.305 3.8.576c-.739.28-1.4.709-1.951 1.272A5.417 5.417 0 0 0 .58 3.795c-.27.7-.46 1.5-.511 2.669C.013 7.64 0 8.015 0 11.002s.013 3.361.064 4.534c.052 1.17.241 1.973.512 2.67.28.738.713 1.4 1.272 1.95.55.559 1.216.993 1.947 1.268.7.271 1.5.46 2.669.512 1.173.051 1.547.064 4.534.064s3.36-.013 4.534-.064c1.169-.052 1.973-.241 2.669-.512a5.628 5.628 0 0 0 3.219-3.219c.27-.7.46-1.5.511-2.669.052-1.173.065-1.547.065-4.534s-.005-3.36-.056-4.534Z" clip-rule="evenodd"/>
    <path fill="#000" fill-rule="evenodd" d="M11.002 14.668a3.667 3.667 0 1 1 .001-7.333 3.667 3.667 0 0 1 0 7.333Zm0-9.317a5.653 5.653 0 0 0-5.651 5.651 5.653 5.653 0 0 0 5.651 5.652 5.653 5.653 0 0 0 5.652-5.652 5.653 5.653 0 0 0-5.652-5.651ZM18.197 5.127a1.32 1.32 0 1 1-2.64 0 1.32 1.32 0 0 1 2.64 0Z" clip-rule="evenodd"/>
</svg>