<svg xmlns="http://www.w3.org/2000/svg" width="21" height="24" fill="none">
    <path fill="#000" fill-rule="evenodd" d="M10.705 0C4.126.001.63 4.216.63 8.812c0 2.131 1.19 4.79 3.097 5.633.544.245.472-.054.94-1.844a.425.425 0 0 0-.102-.417C1.84 9.031 4.033 2.55 10.316 2.55c9.093 0 7.394 12.582 1.582 12.582-1.498 0-2.614-1.176-2.26-2.63.427-1.734 1.265-3.597 1.265-4.846 0-3.148-4.69-2.681-4.69 1.49 0 1.29.456 2.16.456 2.16S5.16 17.4 4.88 18.538c-.474 1.928.064 5.05.111 5.318.03.148.195.195.288.073.15-.195 1.973-2.797 2.484-4.678.186-.685.95-3.465.95-3.465.502.908 1.952 1.668 3.497 1.668 4.596 0 7.918-4.04 7.918-9.053C20.112 3.596 15.999 0 10.705 0Z" clip-rule="evenodd"/>
</svg>