<svg xmlns="http://www.w3.org/2000/svg" width="15" height="19" fill="none">
    <path fill="#000" fill-rule="evenodd" d="M7.917 13.238v1.804a.791.791 0 1 1-1.584 0v-1.804a1.578 1.578 0 0 1-.791-1.363c0-.873.71-1.583 1.583-1.583s1.583.71 1.583 1.583c0 .584-.32 1.088-.791 1.363ZM3.958 4.75a3.17 3.17 0 0 1 3.167-3.167 3.17 3.17 0 0 1 3.167 3.167v2.375H3.958V4.75Zm8.51 2.375h-.593V4.75c0-2.62-2.13-4.75-4.75-4.75s-4.75 2.13-4.75 4.75v2.375h-.594C.8 7.125 0 7.924 0 8.906v8.313C0 18.2.8 19 1.781 19H12.47c.981 0 1.781-.799 1.781-1.781V8.906c0-.982-.8-1.781-1.781-1.781Z" clip-rule="evenodd"/>
</svg>