<svg xmlns="http://www.w3.org/2000/svg" width="25" height="20" fill="none">
    <path fill="#000" fill-rule="evenodd" d="M24.621 2.368c-.916.401-1.891.667-2.908.797a5.018 5.018 0 0 0 2.22-2.79c-.975.582-2.053.993-3.2 1.222a5.045 5.045 0 0 0-8.731 3.45c0 .4.033.785.116 1.151C7.922 5.994 4.208 3.983 1.714.92a5.08 5.08 0 0 0-.69 2.55c0 1.748.9 3.298 2.242 4.195a4.986 4.986 0 0 1-2.28-.622v.055a5.07 5.07 0 0 0 4.043 4.959 5.04 5.04 0 0 1-1.323.166c-.323 0-.65-.018-.956-.086.654 1.998 2.51 3.468 4.716 3.515a10.143 10.143 0 0 1-6.258 2.153c-.414 0-.81-.019-1.208-.07A14.213 14.213 0 0 0 7.743 20c9.289 0 14.367-7.692 14.367-14.36 0-.223-.008-.438-.019-.652a10.067 10.067 0 0 0 2.53-2.62Z" clip-rule="evenodd"/>
</svg>